<svg width="1024" height="1024" viewBox="0 0 1024 1024" fill="none" xmlns="http://www.w3.org/2000/svg" role="img" aria-label="Qemica">
  <defs>
    <linearGradient id="q_bg" x1="412" y1="70" x2="612" y2="1010" gradientUnits="userSpaceOnUse">
      <stop offset="0" stop-color="#945BF3"></stop>
      <stop offset="1" stop-color="#491A9E"></stop>
    </linearGradient>
    <clipPath id="q_clip"><path d="M 1024.00 512.00 L 1023.72 669.32 L 1022.88 719.47 L 1021.47 755.78 L 1019.49 785.16 L 1016.95 810.17 L 1013.83 832.08 L 1010.12 851.63 L 1005.81 869.27 L 1000.90 885.33 L 995.37 900.02 L 989.21 913.53 L 982.38 925.96 L 974.88 937.42 L 966.67 947.99 L 957.72 957.72 L 947.99 966.67 L 937.42 974.88 L 925.96 982.38 L 913.53 989.21 L 900.02 995.37 L 885.33 1000.90 L 869.27 1005.81 L 851.63 1010.12 L 832.08 1013.83 L 810.17 1016.95 L 785.16 1019.49 L 755.78 1021.47 L 719.47 1022.88 L 669.32 1023.72 L 512.00 1024.00 L 354.68 1023.72 L 304.53 1022.88 L 268.22 1021.47 L 238.84 1019.49 L 213.83 1016.95 L 191.92 1013.83 L 172.37 1010.12 L 154.73 1005.81 L 138.67 1000.90 L 123.98 995.37 L 110.47 989.21 L 98.04 982.38 L 86.58 974.88 L 76.01 966.67 L 66.28 957.72 L 57.33 947.99 L 49.12 937.42 L 41.62 925.96 L 34.79 913.53 L 28.63 900.02 L 23.10 885.33 L 18.19 869.27 L 13.88 851.63 L 10.17 832.08 L 7.05 810.17 L 4.51 785.16 L 2.53 755.78 L 1.12 719.47 L 0.28 669.32 L 0.00 512.00 L 0.28 354.68 L 1.12 304.53 L 2.53 268.22 L 4.51 238.84 L 7.05 213.83 L 10.17 191.92 L 13.88 172.37 L 18.19 154.73 L 23.10 138.67 L 28.63 123.98 L 34.79 110.47 L 41.62 98.04 L 49.12 86.58 L 57.33 76.01 L 66.28 66.28 L 76.01 57.33 L 86.58 49.12 L 98.04 41.62 L 110.47 34.79 L 123.98 28.63 L 138.67 23.10 L 154.73 18.19 L 172.37 13.88 L 191.92 10.17 L 213.83 7.05 L 238.84 4.51 L 268.22 2.53 L 304.53 1.12 L 354.68 0.28 L 512.00 0.00 L 669.32 0.28 L 719.47 1.12 L 755.78 2.53 L 785.16 4.51 L 810.17 7.05 L 832.08 10.17 L 851.63 13.88 L 869.27 18.19 L 885.33 23.10 L 900.02 28.63 L 913.53 34.79 L 925.96 41.62 L 937.42 49.12 L 947.99 57.33 L 957.72 66.28 L 966.67 76.01 L 974.88 86.58 L 982.38 98.04 L 989.21 110.47 L 995.37 123.98 L 1000.90 138.67 L 1005.81 154.73 L 1010.12 172.37 L 1013.83 191.92 L 1016.95 213.83 L 1019.49 238.84 L 1021.47 268.22 L 1022.88 304.53 L 1023.72 354.68 L 1024.00 512.00 Z"></path></clipPath>
  </defs>
  <g clip-path="url(#q_clip)">
    <path d="M 1024.00 512.00 L 1023.72 669.32 L 1022.88 719.47 L 1021.47 755.78 L 1019.49 785.16 L 1016.95 810.17 L 1013.83 832.08 L 1010.12 851.63 L 1005.81 869.27 L 1000.90 885.33 L 995.37 900.02 L 989.21 913.53 L 982.38 925.96 L 974.88 937.42 L 966.67 947.99 L 957.72 957.72 L 947.99 966.67 L 937.42 974.88 L 925.96 982.38 L 913.53 989.21 L 900.02 995.37 L 885.33 1000.90 L 869.27 1005.81 L 851.63 1010.12 L 832.08 1013.83 L 810.17 1016.95 L 785.16 1019.49 L 755.78 1021.47 L 719.47 1022.88 L 669.32 1023.72 L 512.00 1024.00 L 354.68 1023.72 L 304.53 1022.88 L 268.22 1021.47 L 238.84 1019.49 L 213.83 1016.95 L 191.92 1013.83 L 172.37 1010.12 L 154.73 1005.81 L 138.67 1000.90 L 123.98 995.37 L 110.47 989.21 L 98.04 982.38 L 86.58 974.88 L 76.01 966.67 L 66.28 957.72 L 57.33 947.99 L 49.12 937.42 L 41.62 925.96 L 34.79 913.53 L 28.63 900.02 L 23.10 885.33 L 18.19 869.27 L 13.88 851.63 L 10.17 832.08 L 7.05 810.17 L 4.51 785.16 L 2.53 755.78 L 1.12 719.47 L 0.28 669.32 L 0.00 512.00 L 0.28 354.68 L 1.12 304.53 L 2.53 268.22 L 4.51 238.84 L 7.05 213.83 L 10.17 191.92 L 13.88 172.37 L 18.19 154.73 L 23.10 138.67 L 28.63 123.98 L 34.79 110.47 L 41.62 98.04 L 49.12 86.58 L 57.33 76.01 L 66.28 66.28 L 76.01 57.33 L 86.58 49.12 L 98.04 41.62 L 110.47 34.79 L 123.98 28.63 L 138.67 23.10 L 154.73 18.19 L 172.37 13.88 L 191.92 10.17 L 213.83 7.05 L 238.84 4.51 L 268.22 2.53 L 304.53 1.12 L 354.68 0.28 L 512.00 0.00 L 669.32 0.28 L 719.47 1.12 L 755.78 2.53 L 785.16 4.51 L 810.17 7.05 L 832.08 10.17 L 851.63 13.88 L 869.27 18.19 L 885.33 23.10 L 900.02 28.63 L 913.53 34.79 L 925.96 41.62 L 937.42 49.12 L 947.99 57.33 L 957.72 66.28 L 966.67 76.01 L 974.88 86.58 L 982.38 98.04 L 989.21 110.47 L 995.37 123.98 L 1000.90 138.67 L 1005.81 154.73 L 1010.12 172.37 L 1013.83 191.92 L 1016.95 213.83 L 1019.49 238.84 L 1021.47 268.22 L 1022.88 304.53 L 1023.72 354.68 L 1024.00 512.00 Z" fill="url(#q_bg)"></path>
    <path d="M 1024.00 512.00 L 1023.72 669.32 L 1022.88 719.47 L 1021.47 755.78 L 1019.49 785.16 L 1016.95 810.17 L 1013.83 832.08 L 1010.12 851.63 L 1005.81 869.27 L 1000.90 885.33 L 995.37 900.02 L 989.21 913.53 L 982.38 925.96 L 974.88 937.42 L 966.67 947.99 L 957.72 957.72 L 947.99 966.67 L 937.42 974.88 L 925.96 982.38 L 913.53 989.21 L 900.02 995.37 L 885.33 1000.90 L 869.27 1005.81 L 851.63 1010.12 L 832.08 1013.83 L 810.17 1016.95 L 785.16 1019.49 L 755.78 1021.47 L 719.47 1022.88 L 669.32 1023.72 L 512.00 1024.00 L 354.68 1023.72 L 304.53 1022.88 L 268.22 1021.47 L 238.84 1019.49 L 213.83 1016.95 L 191.92 1013.83 L 172.37 1010.12 L 154.73 1005.81 L 138.67 1000.90 L 123.98 995.37 L 110.47 989.21 L 98.04 982.38 L 86.58 974.88 L 76.01 966.67 L 66.28 957.72 L 57.33 947.99 L 49.12 937.42 L 41.62 925.96 L 34.79 913.53 L 28.63 900.02 L 23.10 885.33 L 18.19 869.27 L 13.88 851.63 L 10.17 832.08 L 7.05 810.17 L 4.51 785.16 L 2.53 755.78 L 1.12 719.47 L 0.28 669.32 L 0.00 512.00 L 0.28 354.68 L 1.12 304.53 L 2.53 268.22 L 4.51 238.84 L 7.05 213.83 L 10.17 191.92 L 13.88 172.37 L 18.19 154.73 L 23.10 138.67 L 28.63 123.98 L 34.79 110.47 L 41.62 98.04 L 49.12 86.58 L 57.33 76.01 L 66.28 66.28 L 76.01 57.33 L 86.58 49.12 L 98.04 41.62 L 110.47 34.79 L 123.98 28.63 L 138.67 23.10 L 154.73 18.19 L 172.37 13.88 L 191.92 10.17 L 213.83 7.05 L 238.84 4.51 L 268.22 2.53 L 304.53 1.12 L 354.68 0.28 L 512.00 0.00 L 669.32 0.28 L 719.47 1.12 L 755.78 2.53 L 785.16 4.51 L 810.17 7.05 L 832.08 10.17 L 851.63 13.88 L 869.27 18.19 L 885.33 23.10 L 900.02 28.63 L 913.53 34.79 L 925.96 41.62 L 937.42 49.12 L 947.99 57.33 L 957.72 66.28 L 966.67 76.01 L 974.88 86.58 L 982.38 98.04 L 989.21 110.47 L 995.37 123.98 L 1000.90 138.67 L 1005.81 154.73 L 1010.12 172.37 L 1013.83 191.92 L 1016.95 213.83 L 1019.49 238.84 L 1021.47 268.22 L 1022.88 304.53 L 1023.72 354.68 L 1024.00 512.00 Z" fill="none" stroke="#FFFFFF" stroke-opacity="0.16" stroke-width="3"></path>

    <line x1="646" y1="642" x2="778" y2="768" stroke="#F1ECFF" stroke-width="24" stroke-linecap="round"></line>
    <line x1="714" y1="707" x2="778" y2="768" stroke="#F6A41F" stroke-width="24" stroke-linecap="round"></line>

    
    <path d="M 223 486 A 263 44 0 0 1 749 486" fill="none" stroke="#E4DBFF" stroke-width="22" stroke-linecap="round"></path>
    <circle cx="486" cy="486" r="264" fill="none" stroke="#FFFFFF" stroke-width="26"></circle>
    <path d="M 223 486 A 263 44 0 0 0 749 486" fill="none" stroke="#FFFFFF" stroke-width="24" stroke-linecap="round"></path>

    <line x1="484" y1="486" x2="580" y2="372" stroke="#FF3D55" stroke-width="22" stroke-linecap="round"></line>
    <circle cx="484" cy="486" r="19" fill="#FF3D55"></circle>
    <path d="M604 343 L562 357 L588 388 Z" fill="#FF3D55"></path>

    <circle cx="794" cy="784" r="68" fill="#F9A11B" stroke="#B5601A" stroke-width="8"></circle>
    <circle cx="770" cy="760" r="21" fill="#FFD98A"></circle>
  </g>
</svg>